<?xml version="1.0" encoding="UTF-8" standalone="no"?>
<!-- Created with Inkscape (http://www.inkscape.org/) -->

<svg
   xmlns:osb="http://www.openswatchbook.org/uri/2009/osb"
   xmlns:dc="http://purl.org/dc/elements/1.1/"
   xmlns:cc="http://creativecommons.org/ns#"
   xmlns:rdf="http://www.w3.org/1999/02/22-rdf-syntax-ns#"
   xmlns:svg="http://www.w3.org/2000/svg"
   xmlns="http://www.w3.org/2000/svg"
   xmlns:xlink="http://www.w3.org/1999/xlink"
   xmlns:sodipodi="http://sodipodi.sourceforge.net/DTD/sodipodi-0.dtd"
   xmlns:inkscape="http://www.inkscape.org/namespaces/inkscape"
   width="1cm"
   height="1cm"
   viewBox="0 0 35.433071 35.433071"
   id="svg6520"
   version="1.1"
   inkscape:version="0.91 r13725"
   sodipodi:docname="logo.svg">
  <defs
     id="defs6522">
    <linearGradient
       inkscape:collect="always"
       xlink:href="#linearGradient13044"
       id="linearGradient13048"
       x1="-24398.607"
       y1="51707.723"
       x2="-22853.803"
       y2="51707.723"
       gradientUnits="userSpaceOnUse" />
    <linearGradient
       id="linearGradient13044"
       osb:paint="solid">
      <stop
         style="stop-color:#ffffff;stop-opacity:1;"
         offset="0"
         id="stop13046" />
    </linearGradient>
  </defs>
  <sodipodi:namedview
     id="base"
     pagecolor="#ffffff"
     bordercolor="#666666"
     borderopacity="1.0"
     inkscape:pageopacity="0.0"
     inkscape:pageshadow="2"
     inkscape:zoom="8.2339295"
     inkscape:cx="23.700226"
     inkscape:cy="-12.920474"
     inkscape:document-units="px"
     inkscape:current-layer="layer1"
     showgrid="false"
     inkscape:window-width="1920"
     inkscape:window-height="991"
     inkscape:window-x="0"
     inkscape:window-y="30"
     inkscape:window-maximized="1"
     units="cm" />
  <metadata
     id="metadata6525">
    <rdf:RDF>
      <cc:Work
         rdf:about="">
        <dc:format>image/svg+xml</dc:format>
        <dc:type
           rdf:resource="http://purl.org/dc/dcmitype/StillImage" />
        <dc:title />
      </cc:Work>
    </rdf:RDF>
  </metadata>
  <g
     inkscape:label="Layer 1"
     inkscape:groupmode="layer"
     id="layer1"
     transform="translate(0,-1016.9291)">
    <path
       sodipodi:type="star"
       style="opacity:0.98999999;fill:none;fill-opacity:0.99215686;fill-rule:nonzero;stroke:url(#linearGradient13048);stroke-width:15.73499966;stroke-linecap:butt;stroke-linejoin:miter;stroke-miterlimit:4;stroke-dasharray:none;stroke-dashoffset:0;stroke-opacity:1"
       id="path7773-9"
       sodipodi:sides="6"
       sodipodi:cx="-23626.205"
       sodipodi:cy="51707.723"
       sodipodi:r1="778.10175"
       sodipodi:r2="633.53546"
       sodipodi:arg1="0.12157723"
       sodipodi:arg2="0.64517593"
       inkscape:flatsided="true"
       inkscape:rounded="0.043043883"
       inkscape:randomized="0"
       d="m -22853.847,51802.089 c -4.062,33.246 -437.081,608.594 -467.903,621.699 -30.822,13.105 -745.598,-74.226 -772.358,-94.367 -26.76,-20.14 -308.517,-682.82 -304.455,-716.065 4.062,-33.245 437.08,-608.594 467.903,-621.699 30.822,-13.104 745.598,74.227 772.358,94.367 26.76,20.14 308.517,682.82 304.455,716.065 z"
       transform="matrix(0.00251014,0.02110654,-0.02110654,0.00251014,1168.5265,1403.7864)" />
    <g
       transform="matrix(0.0185268,0,0,0.01893129,246.49218,329.91562)"
       style="opacity:0.98999999;fill:#ffffff"
       id="g6193-3-0-7-2-41-6-0"
       inkscape:export-filename="/home/anton/projects/statsim/statsim.github.io/images/logo.png"
       inkscape:export-xdpi="17.129999"
       inkscape:export-ydpi="17.129999">
      <path
         id="path7647-7-6-8-5-9-0-3-8"
         d="m -11952.263,37121.795 1.274,-94.891 c -55.832,0.922 -104.697,3.905 -153.254,22.377 -62.344,23.717 -115.727,72.903 -171.219,158.371 -78.019,120.163 -130.55,199.496 -202.414,247.375 -57.214,38.119 -131.19,60.751 -251.396,66.932 l 0,94.65 c 134.423,-6.564 228.417,-32.6 303.847,-82.855 93.426,-62.245 151.383,-154.572 229.305,-274.586 49.804,-76.708 85.792,-106.36 125.514,-121.471 30.23,-11.5 67.59,-14.6 118.343,-15.902 z"
         style="color:#000000;font-style:normal;font-variant:normal;font-weight:normal;font-stretch:normal;font-size:medium;line-height:normal;font-family:sans-serif;text-indent:0;text-align:start;text-decoration:none;text-decoration-line:none;text-decoration-style:solid;text-decoration-color:#000000;letter-spacing:normal;word-spacing:normal;text-transform:none;direction:ltr;block-progression:tb;writing-mode:lr-tb;baseline-shift:baseline;text-anchor:start;white-space:normal;clip-rule:nonzero;display:inline;overflow:visible;visibility:visible;opacity:0.98999999;isolation:auto;mix-blend-mode:normal;color-interpolation:sRGB;color-interpolation-filters:linearRGB;solid-color:#000000;solid-opacity:1;fill:#ffffff;fill-opacity:0.98431373;fill-rule:evenodd;stroke:none;stroke-width:95.53472137;stroke-linecap:square;stroke-linejoin:miter;stroke-miterlimit:4;stroke-dasharray:none;stroke-dashoffset:0;stroke-opacity:1;color-rendering:auto;image-rendering:auto;shape-rendering:auto;text-rendering:auto;enable-background:accumulate"
         inkscape:connector-curvature="0" />
      <path
         id="path6097-9-4-3-4-4-64-2-4-47-5-2-7-5-3-1-06-9-9"
         d="m -12729.272,37357.203 0,94.982 c 108.788,-1.478 185.647,-31.182 243.416,-81.427 70.738,-61.527 111.882,-143.46 174.806,-231.596 57.093,-79.969 107.678,-124.363 166.909,-150.492 51.634,-22.779 112.764,-32.241 194.103,-32.623 l 1.283,-95.551 c -0.277,0 -0.559,-10e-4 -0.836,0 -89.396,0.311 -164.809,10.634 -233.111,40.765 -78.06,34.437 -142.994,94.001 -206.1,182.391 -67.04,93.901 -108.43,170.384 -159.752,215.022 -41.703,36.271 -90.611,58.375 -180.718,58.529 z"
         style="color:#000000;font-style:normal;font-variant:normal;font-weight:normal;font-stretch:normal;font-size:medium;line-height:normal;font-family:sans-serif;text-indent:0;text-align:start;text-decoration:none;text-decoration-line:none;text-decoration-style:solid;text-decoration-color:#000000;letter-spacing:normal;word-spacing:normal;text-transform:none;direction:ltr;block-progression:tb;writing-mode:lr-tb;baseline-shift:baseline;text-anchor:start;white-space:normal;clip-rule:nonzero;display:inline;overflow:visible;visibility:visible;opacity:0.98999999;isolation:auto;mix-blend-mode:normal;color-interpolation:sRGB;color-interpolation-filters:linearRGB;solid-color:#000000;solid-opacity:1;fill:#ffffff;fill-opacity:0.98431373;fill-rule:evenodd;stroke:none;stroke-width:95.53472137;stroke-linecap:square;stroke-linejoin:miter;stroke-miterlimit:4;stroke-dasharray:none;stroke-dashoffset:0;stroke-opacity:1;color-rendering:auto;image-rendering:auto;shape-rendering:auto;text-rendering:auto;enable-background:accumulate"
         inkscape:connector-curvature="0" />
    </g>
  </g>
</svg>
